<svg id="e9FJDy1BrA41" xmlns="http://www.w3.org/2000/svg" xmlns:xlink="http://www.w3.org/1999/xlink" viewBox="0 0 300 300" shape-rendering="geometricPrecision" text-rendering="geometricPrecision" project-id="e8da751df8514d68ad842568ab990e32" export-id="1e53f2b060084d3fa1ae862d1aee30c3" cached="true"><g transform="matrix(2.282871 0 0 1.691327-192.522332-102.274174)"><path d="M147.2908,176.33916l.09463,5.70052-39.81569-26.09486l39.72106,20.39434Zm.86581,52.1552L93.6826,189.65525v-32.86007l53.88262,36.07441.59139,35.62477Z" fill="#fff" stroke-width="0"/><path d="M206.0481,193.78598l-54.79481,34.50194-.52583-35.70872l55.32064-35.74698v36.95376Zm-55.51586-14.46393l32.81591-18.15526-32.77338,21.0438-.04253-2.88854Z" fill="#fff" stroke-width="0"/><path d="M84.33342,140.92862l35.34144-23.69688-.1822.29628c-2.60376,4.23402-.60475,10.19372,4.46491,13.31136l11.74403,7.15302h-31.83987v5.35302h96.50025v-5.35302h-26.64121l10.97346-17.90877l31.05267,20.27992-66.14516,43.19816-65.26832-42.63309Z" fill="#fff" stroke-width="0"/><path d="M163.11367,70.97953l26.05355,15.34671c3.56493,2.0999,4.96152,6.33741,3.11938,9.46474l-26.84192,42.67967c-5.50833-.04541-12.66274.03197-16.54069,0l-18.77718-11.49057c-3.56493-2.0999-4.96152-6.33741-3.11938-9.46474L153.3233,72.83985c1.84214-3.12733,6.22543-3.96023,9.79036-1.86033l.00001.00001Zm-18.7741,34.41915l-2.91397,1.93876l8.30897,12.48843v0l1.88563,3.10121l28.00338-29.76463-2.54343-2.40436-24.88318,26.45031-7.8574-11.80972Z" transform="translate(.000001 0)" fill="#fff" fill-rule="evenodd" stroke-width="0"/></g></svg>
